<mxfile host="app.diagrams.net" agent="Mozilla/5.0 (Macintosh; Intel Mac OS X 10_15_7) AppleWebKit/537.36 (KHTML, like Gecko) Chrome/130.0.0.0 Safari/537.36" version="24.8.6">
  <diagram name="Page-1" id="zA5QYNMcYpNvQvPsNOxR">
    <mxGraphModel dx="1242" dy="819" grid="1" gridSize="10" guides="1" tooltips="1" connect="1" arrows="1" fold="1" page="1" pageScale="1" pageWidth="827" pageHeight="1169" math="0" shadow="0">
      <root>
        <mxCell id="0" />
        <mxCell id="1" parent="0" />
        <mxCell id="0nZqUWH3G4t3b6CZHQw1-1" value="User&lt;div&gt;&lt;br&gt;&lt;/div&gt;" style="shape=umlActor;verticalLabelPosition=bottom;verticalAlign=top;html=1;outlineConnect=0;" vertex="1" parent="1">
          <mxGeometry x="30" y="200" width="30" height="60" as="geometry" />
        </mxCell>
        <mxCell id="0nZqUWH3G4t3b6CZHQw1-2" value="" style="shape=flexArrow;endArrow=classic;html=1;rounded=0;" edge="1" parent="1">
          <mxGeometry width="50" height="50" relative="1" as="geometry">
            <mxPoint x="80" y="229.5" as="sourcePoint" />
            <mxPoint x="160" y="229.5" as="targetPoint" />
          </mxGeometry>
        </mxCell>
        <mxCell id="0nZqUWH3G4t3b6CZHQw1-3" value="supplies" style="text;html=1;align=center;verticalAlign=middle;whiteSpace=wrap;rounded=0;" vertex="1" parent="1">
          <mxGeometry x="80" y="190" width="60" height="30" as="geometry" />
        </mxCell>
        <mxCell id="0nZqUWH3G4t3b6CZHQw1-6" value="&lt;div style=&quot;&quot;&gt;&lt;span style=&quot;background-color: initial;&quot;&gt;&amp;nbsp; Prompt&lt;/span&gt;&lt;/div&gt;" style="shape=note;whiteSpace=wrap;html=1;backgroundOutline=1;darkOpacity=0.05;align=left;size=16;" vertex="1" parent="1">
          <mxGeometry x="170" y="190" width="90" height="40" as="geometry" />
        </mxCell>
        <mxCell id="0nZqUWH3G4t3b6CZHQw1-8" value="&lt;div style=&quot;&quot;&gt;&amp;nbsp; Query&lt;/div&gt;" style="shape=note;whiteSpace=wrap;html=1;backgroundOutline=1;darkOpacity=0.05;align=left;size=16;" vertex="1" parent="1">
          <mxGeometry x="170" y="240" width="90" height="40" as="geometry" />
        </mxCell>
        <mxCell id="0nZqUWH3G4t3b6CZHQw1-9" value="1" style="ellipse;whiteSpace=wrap;html=1;aspect=fixed;labelBackgroundColor=#000000;strokeColor=#000000;fillColor=#000000;fontColor=#FFFFFF;fontSize=20;fontStyle=1" vertex="1" parent="1">
          <mxGeometry x="90" y="250" width="40" height="40" as="geometry" />
        </mxCell>
        <mxCell id="0nZqUWH3G4t3b6CZHQw1-12" value="" style="rounded=0;whiteSpace=wrap;html=1;rotation=-90;" vertex="1" parent="1">
          <mxGeometry x="80.94" y="314.07" width="488.13" height="87.5" as="geometry" />
        </mxCell>
        <mxCell id="0nZqUWH3G4t3b6CZHQw1-15" value="Chat API" style="text;html=1;align=center;verticalAlign=middle;whiteSpace=wrap;rounded=0;" vertex="1" parent="1">
          <mxGeometry x="295" y="270" width="60" height="30" as="geometry" />
        </mxCell>
        <mxCell id="0nZqUWH3G4t3b6CZHQw1-16" value="Quadrant&lt;div&gt;Vector DB&lt;/div&gt;" style="shape=cylinder3;whiteSpace=wrap;html=1;boundedLbl=1;backgroundOutline=1;size=15;" vertex="1" parent="1">
          <mxGeometry x="550" y="155" width="120" height="120" as="geometry" />
        </mxCell>
        <mxCell id="0nZqUWH3G4t3b6CZHQw1-17" value="" style="shape=flexArrow;endArrow=classic;html=1;rounded=0;" edge="1" parent="1">
          <mxGeometry width="50" height="50" relative="1" as="geometry">
            <mxPoint x="390" y="190" as="sourcePoint" />
            <mxPoint x="520" y="190.5" as="targetPoint" />
          </mxGeometry>
        </mxCell>
        <mxCell id="0nZqUWH3G4t3b6CZHQw1-18" value="searches" style="text;html=1;align=center;verticalAlign=middle;whiteSpace=wrap;rounded=0;" vertex="1" parent="1">
          <mxGeometry x="420" y="160" width="60" height="30" as="geometry" />
        </mxCell>
        <mxCell id="0nZqUWH3G4t3b6CZHQw1-19" value="&lt;div style=&quot;&quot;&gt;&amp;nbsp; Query&lt;/div&gt;" style="shape=note;whiteSpace=wrap;html=1;backgroundOutline=1;darkOpacity=0.05;align=left;size=16;" vertex="1" parent="1">
          <mxGeometry x="405" y="120" width="90" height="40" as="geometry" />
        </mxCell>
        <mxCell id="0nZqUWH3G4t3b6CZHQw1-20" value="2" style="ellipse;whiteSpace=wrap;html=1;aspect=fixed;labelBackgroundColor=#000000;strokeColor=#000000;fillColor=#000000;fontColor=#FFFFFF;fontSize=20;fontStyle=1" vertex="1" parent="1">
          <mxGeometry x="500" y="90" width="40" height="40" as="geometry" />
        </mxCell>
        <mxCell id="0nZqUWH3G4t3b6CZHQw1-21" value="" style="shape=flexArrow;endArrow=classic;html=1;rounded=0;" edge="1" parent="1">
          <mxGeometry width="50" height="50" relative="1" as="geometry">
            <mxPoint x="535" y="244.5" as="sourcePoint" />
            <mxPoint x="405" y="245" as="targetPoint" />
          </mxGeometry>
        </mxCell>
        <mxCell id="0nZqUWH3G4t3b6CZHQw1-22" value="returns" style="text;html=1;align=center;verticalAlign=middle;whiteSpace=wrap;rounded=0;" vertex="1" parent="1">
          <mxGeometry x="450" y="215" width="60" height="30" as="geometry" />
        </mxCell>
        <mxCell id="0nZqUWH3G4t3b6CZHQw1-24" value="&lt;div style=&quot;&quot;&gt;&amp;nbsp; matches&lt;/div&gt;" style="shape=note;whiteSpace=wrap;html=1;backgroundOutline=1;darkOpacity=0.05;align=left;size=16;" vertex="1" parent="1">
          <mxGeometry x="450" y="260" width="90" height="40" as="geometry" />
        </mxCell>
        <mxCell id="0nZqUWH3G4t3b6CZHQw1-25" value="3" style="ellipse;whiteSpace=wrap;html=1;aspect=fixed;labelBackgroundColor=#000000;strokeColor=#000000;fillColor=#000000;fontColor=#FFFFFF;fontSize=20;fontStyle=1" vertex="1" parent="1">
          <mxGeometry x="394" y="267" width="40" height="40" as="geometry" />
        </mxCell>
        <mxCell id="0nZqUWH3G4t3b6CZHQw1-26" value="" style="shape=flexArrow;endArrow=classic;html=1;rounded=0;" edge="1" parent="1">
          <mxGeometry width="50" height="50" relative="1" as="geometry">
            <mxPoint x="380" y="440" as="sourcePoint" />
            <mxPoint x="510" y="440.5" as="targetPoint" />
          </mxGeometry>
        </mxCell>
        <mxCell id="0nZqUWH3G4t3b6CZHQw1-28" value="requests info" style="text;html=1;align=center;verticalAlign=middle;whiteSpace=wrap;rounded=0;" vertex="1" parent="1">
          <mxGeometry x="394" y="407" width="96" height="30" as="geometry" />
        </mxCell>
        <mxCell id="0nZqUWH3G4t3b6CZHQw1-29" value="&lt;div style=&quot;&quot;&gt;&lt;span style=&quot;background-color: initial;&quot;&gt;&amp;nbsp; Prompt&lt;/span&gt;&lt;/div&gt;" style="shape=note;whiteSpace=wrap;html=1;backgroundOutline=1;darkOpacity=0.05;align=left;size=16;" vertex="1" parent="1">
          <mxGeometry x="500" y="377" width="90" height="40" as="geometry" />
        </mxCell>
        <mxCell id="0nZqUWH3G4t3b6CZHQw1-30" value="&lt;div style=&quot;&quot;&gt;&amp;nbsp; Query&lt;/div&gt;" style="shape=note;whiteSpace=wrap;html=1;backgroundOutline=1;darkOpacity=0.05;align=left;size=16;" vertex="1" parent="1">
          <mxGeometry x="516.25" y="410" width="90" height="40" as="geometry" />
        </mxCell>
        <mxCell id="0nZqUWH3G4t3b6CZHQw1-31" value="&lt;div style=&quot;&quot;&gt;&amp;nbsp; matches&lt;/div&gt;" style="shape=note;whiteSpace=wrap;html=1;backgroundOutline=1;darkOpacity=0.05;align=left;size=16;" vertex="1" parent="1">
          <mxGeometry x="530" y="442" width="90" height="40" as="geometry" />
        </mxCell>
        <mxCell id="0nZqUWH3G4t3b6CZHQw1-32" value="" style="image;sketch=0;aspect=fixed;html=1;points=[];align=center;fontSize=12;image=img/lib/mscae/Cognitive_Services.svg;" vertex="1" parent="1">
          <mxGeometry x="640" y="410" width="116.67" height="70" as="geometry" />
        </mxCell>
        <mxCell id="0nZqUWH3G4t3b6CZHQw1-33" value="LLM" style="text;html=1;align=center;verticalAlign=middle;whiteSpace=wrap;rounded=0;" vertex="1" parent="1">
          <mxGeometry x="670" y="377" width="60" height="30" as="geometry" />
        </mxCell>
        <mxCell id="0nZqUWH3G4t3b6CZHQw1-34" value="4" style="ellipse;whiteSpace=wrap;html=1;aspect=fixed;labelBackgroundColor=#000000;strokeColor=#000000;fillColor=#000000;fontColor=#FFFFFF;fontSize=20;fontStyle=1" vertex="1" parent="1">
          <mxGeometry x="380" y="370" width="40" height="40" as="geometry" />
        </mxCell>
        <mxCell id="0nZqUWH3G4t3b6CZHQw1-36" value="" style="shape=flexArrow;endArrow=classic;html=1;rounded=0;" edge="1" parent="1">
          <mxGeometry width="50" height="50" relative="1" as="geometry">
            <mxPoint x="699.07" y="489" as="sourcePoint" />
            <mxPoint x="520" y="585" as="targetPoint" />
            <Array as="points">
              <mxPoint x="699.07" y="585" />
            </Array>
          </mxGeometry>
        </mxCell>
        <mxCell id="0nZqUWH3G4t3b6CZHQw1-37" value="generate text" style="text;html=1;align=center;verticalAlign=middle;whiteSpace=wrap;rounded=0;" vertex="1" parent="1">
          <mxGeometry x="569.0699999999999" y="550" width="96" height="30" as="geometry" />
        </mxCell>
        <mxCell id="0nZqUWH3G4t3b6CZHQw1-38" value="&lt;div style=&quot;&quot;&gt;&amp;nbsp; &amp;nbsp;response&lt;/div&gt;" style="shape=note;whiteSpace=wrap;html=1;backgroundOutline=1;darkOpacity=0.05;align=left;size=16;" vertex="1" parent="1">
          <mxGeometry x="414" y="565" width="90" height="40" as="geometry" />
        </mxCell>
        <mxCell id="0nZqUWH3G4t3b6CZHQw1-39" value="5" style="ellipse;whiteSpace=wrap;html=1;aspect=fixed;labelBackgroundColor=#000000;strokeColor=#000000;fillColor=#000000;fontColor=#FFFFFF;fontSize=20;fontStyle=1" vertex="1" parent="1">
          <mxGeometry x="640" y="510" width="40" height="40" as="geometry" />
        </mxCell>
        <mxCell id="0nZqUWH3G4t3b6CZHQw1-40" value="" style="shape=flexArrow;endArrow=classic;html=1;rounded=0;" edge="1" parent="1">
          <mxGeometry width="50" height="50" relative="1" as="geometry">
            <mxPoint x="260" y="590" as="sourcePoint" />
            <mxPoint x="50" y="320" as="targetPoint" />
            <Array as="points">
              <mxPoint x="50" y="590" />
            </Array>
          </mxGeometry>
        </mxCell>
        <mxCell id="0nZqUWH3G4t3b6CZHQw1-41" value="&lt;div style=&quot;&quot;&gt;&amp;nbsp; &amp;nbsp;response&lt;/div&gt;" style="shape=note;whiteSpace=wrap;html=1;backgroundOutline=1;darkOpacity=0.05;align=left;size=16;" vertex="1" parent="1">
          <mxGeometry x="65" y="377" width="90" height="40" as="geometry" />
        </mxCell>
        <mxCell id="0nZqUWH3G4t3b6CZHQw1-42" value="return response" style="text;html=1;align=center;verticalAlign=middle;whiteSpace=wrap;rounded=0;" vertex="1" parent="1">
          <mxGeometry x="90" y="555" width="95" height="30" as="geometry" />
        </mxCell>
        <mxCell id="0nZqUWH3G4t3b6CZHQw1-43" value="6" style="ellipse;whiteSpace=wrap;html=1;aspect=fixed;labelBackgroundColor=#000000;strokeColor=#000000;fillColor=#000000;fontColor=#FFFFFF;fontSize=20;fontStyle=1" vertex="1" parent="1">
          <mxGeometry x="65" y="515" width="40" height="40" as="geometry" />
        </mxCell>
      </root>
    </mxGraphModel>
  </diagram>
</mxfile>
